<svg id="ic_add_shopping_cart_24px" xmlns="http://www.w3.org/2000/svg" width="28.16" height="27" viewBox="0 0 28.16 27">
  <path id="ic_add_shopping_cart_24px-2" data-name="ic_add_shopping_cart_24px" d="M14.968,11.286h2.794V7.429h4.19V4.857h-4.19V1H14.968V4.857h-4.19V7.429h4.19ZM9.381,22.857a2.579,2.579,0,1,0,0,5.143,2.58,2.58,0,1,0,0-5.143Zm13.968,0a2.58,2.58,0,1,0,2.794,2.571A2.685,2.685,0,0,0,23.349,22.857ZM9.618,18.679l.042-.154,1.257-2.1H21.324A2.826,2.826,0,0,0,23.768,15.1L29.16,6.091,26.73,4.857h-.014L25.179,7.429l-3.855,6.429H11.518l-.182-.347L8.208,7.429,6.881,4.857,5.568,2.286H1V4.857H3.794l5.029,9.759-1.886,3.15A2.334,2.334,0,0,0,6.587,19a2.7,2.7,0,0,0,2.794,2.571H26.143V19H9.968A.342.342,0,0,1,9.618,18.679Z" transform="translate(-1 -1)"/>
</svg>
